<?xml version="1.0" encoding="utf-8"?>
<!-- Generator: Adobe Illustrator 22.0.1, SVG Export Plug-In . SVG Version: 6.00 Build 0)  -->
<svg version="1.1" xmlns="http://www.w3.org/2000/svg" xmlns:xlink="http://www.w3.org/1999/xlink" x="0px" y="0px"
	 viewBox="0 0 284.123 127.259" style="enable-background:new 0 0 284.123 127.259;" xml:space="preserve">
<style type="text/css">
	.Drop_x0020_Shadow{fill:none;}
	.Outer_x0020_Glow_x0020_5_x0020_pt{fill:none;}
	.Blue_x0020_Neon{fill:none;stroke:#8AACDA;stroke-width:7;stroke-linecap:round;stroke-linejoin:round;}
	.Chrome_x0020_Highlight{fill:url(#SVGID_1_);stroke:#FFFFFF;stroke-width:0.3629;stroke-miterlimit:1;}
	.Jive_GS{fill:#FFDD00;}
	.Alyssa_GS{fill:#A6D0E4;}
	.st0{fill:none;stroke:#3636FF;stroke-miterlimit:10;}
	.st1{fill:#FFFFFF;}
	.st2{fill:#FFFFFF;stroke:#3636FF;stroke-miterlimit:10;}
	.st3{fill:#3636FF;stroke:#3636FF;stroke-miterlimit:10;}
	.st4{fill:#3636FF;stroke:#FFFFFF;stroke-miterlimit:10;}
	.st5{fill:#3636FF;}
	.st6{fill:url(#SVGID_2_);}
	.st7{fill:url(#SVGID_3_);}
	.st8{fill:url(#SVGID_4_);}
	.st9{fill:url(#SVGID_5_);}
	.st10{opacity:0.6;}
	.st11{fill:none;}
	.st12{opacity:0.8;fill:#FFFFFF;}
	.st13{opacity:0.8;fill:#3636FF;}
	.st14{fill:url(#SVGID_6_);}
	.st15{fill:url(#SVGID_7_);}
	.st16{fill:url(#SVGID_8_);}
	.st17{fill:url(#SVGID_9_);}
	.st18{fill:url(#SVGID_10_);}
	.st19{fill:url(#SVGID_11_);}
	.st20{fill:url(#SVGID_12_);}
	.st21{fill:url(#SVGID_13_);}
	.st22{fill:url(#SVGID_14_);}
	.st23{fill:url(#SVGID_15_);}
	.st24{fill:url(#SVGID_16_);}
	.st25{fill:url(#SVGID_17_);}
	.st26{fill:url(#SVGID_18_);}
	.st27{fill:url(#SVGID_19_);}
	.st28{fill:url(#SVGID_20_);}
	.st29{fill:url(#SVGID_21_);}
	.st30{fill:url(#SVGID_22_);}
	.st31{fill:url(#SVGID_23_);}
	.st32{fill:url(#SVGID_24_);}
	.st33{fill:url(#SVGID_25_);}
	.st34{fill:url(#SVGID_26_);}
	.st35{fill:url(#SVGID_27_);}
	.st36{fill:url(#SVGID_28_);}
	.st37{fill:url(#SVGID_29_);}
	.st38{fill:url(#SVGID_30_);}
	.st39{fill:url(#SVGID_31_);}
	.st40{fill:url(#SVGID_32_);}
	.st41{fill:url(#SVGID_33_);}
	.st42{fill:url(#SVGID_34_);}
	.st43{fill:url(#SVGID_35_);}
	.st44{fill:url(#SVGID_36_);}
	.st45{fill:url(#SVGID_37_);}
	.st46{fill:url(#SVGID_38_);}
	.st47{fill:url(#SVGID_39_);}
	.st48{fill:url(#SVGID_40_);}
	.st49{fill:url(#SVGID_41_);}
	.st50{fill:url(#SVGID_42_);}
	.st51{fill:url(#SVGID_43_);}
	.st52{fill:url(#SVGID_44_);}
	.st53{fill:url(#SVGID_45_);}
	.st54{fill:url(#SVGID_46_);}
	.st55{fill:url(#SVGID_47_);}
	.st56{fill:url(#SVGID_48_);}
	.st57{fill:url(#SVGID_49_);}
	.st58{fill:url(#SVGID_50_);}
	.st59{fill:url(#SVGID_51_);}
	.st60{fill:url(#SVGID_52_);}
	.st61{fill:url(#SVGID_53_);}
	.st62{fill:url(#SVGID_54_);}
	.st63{fill:url(#SVGID_55_);}
	.st64{fill:url(#SVGID_56_);}
	.st65{fill:url(#SVGID_57_);}
	.st66{fill:url(#SVGID_58_);}
	.st67{fill:url(#SVGID_59_);}
	.st68{fill:url(#SVGID_60_);}
	.st69{fill:url(#SVGID_61_);}
	.st70{fill:url(#SVGID_62_);}
	.st71{fill:url(#SVGID_63_);}
	.st72{fill:url(#SVGID_64_);}
	.st73{fill:url(#SVGID_65_);}
	.st74{fill:url(#SVGID_66_);}
	.st75{fill:url(#SVGID_67_);}
	.st76{fill:url(#SVGID_68_);}
	.st77{fill:url(#SVGID_69_);}
	.st78{fill:#222227;}
	.st79{opacity:0.65;fill:#FFFFFF;}
	.st80{fill:url(#SVGID_70_);}
	.st81{fill:url(#SVGID_71_);}
	.st82{fill:url(#SVGID_72_);}
	.st83{fill:url(#SVGID_73_);}
	.st84{opacity:0.8;fill:none;stroke:#2F2FA8;stroke-width:16.5;stroke-linecap:round;stroke-miterlimit:10;}
	.st85{fill:none;stroke:#2F2FA8;stroke-width:16.5;stroke-linecap:round;stroke-miterlimit:10;}
	.st86{opacity:0.7;fill:none;stroke:#FFFFFF;stroke-width:16.5;stroke-linecap:round;stroke-miterlimit:10;}
	.st87{fill:none;stroke:#FFFFFF;stroke-width:16.5;stroke-linecap:round;stroke-miterlimit:10;}
	.st88{fill:url(#SVGID_74_);}
	.st89{fill:url(#SVGID_75_);}
	.st90{fill:url(#SVGID_76_);}
	.st91{fill:url(#SVGID_77_);}
</style>
<linearGradient id="SVGID_1_" gradientUnits="userSpaceOnUse" x1="2415.0901" y1="-5161.2134" x2="2415.0901" y2="-5162.2134">
	<stop  offset="0" style="stop-color:#656565"/>
	<stop  offset="0.618" style="stop-color:#1B1B1B"/>
	<stop  offset="0.6292" style="stop-color:#545454"/>
	<stop  offset="0.9831" style="stop-color:#3E3E3E"/>
</linearGradient>
<g id="Isolation_Mode">
</g>
<g id="Layer_1">
	<g>
		<path class="st5" d="M0,96.367V73.789L52.796,2.932h22.056v73.116h16.152v20.319H74.851v28.134H51.406V96.367H0z M50.885,33.845
			L19.451,76.047h31.955V33.845H50.885z"/>
		<path class="st2" d="M100.989,33.411c2.372-8.047,5.584-14.502,9.638-19.364c4.051-4.864,8.77-8.336,14.154-10.421
			c5.383-2.083,11.085-3.126,17.106-3.126c6.136,0,11.897,1.042,17.28,3.126c5.384,2.085,10.13,5.558,14.241,10.421
			c4.108,4.862,7.351,11.317,9.725,19.364c2.372,8.048,3.56,17.974,3.56,29.784c0,12.156-1.189,22.317-3.56,30.478
			c-2.374,8.163-5.617,14.676-9.725,19.538c-4.111,4.864-8.857,8.336-14.241,10.42c-5.383,2.085-11.145,3.127-17.28,3.127
			c-6.021,0-11.723-1.042-17.106-3.127c-5.384-2.083-10.103-5.556-14.154-10.42c-4.054-4.862-7.267-11.375-9.638-19.538
			c-2.374-8.162-3.56-18.322-3.56-30.478C97.428,51.385,98.614,41.46,100.989,33.411z M122.437,75.786
			c0.23,4.922,0.955,9.668,2.171,14.241c1.215,4.575,3.153,8.483,5.818,11.722c2.662,3.243,6.483,4.864,11.462,4.864
			c5.094,0,9.001-1.62,11.723-4.864c2.719-3.239,4.689-7.147,5.905-11.722c1.216-4.573,1.937-9.319,2.171-14.241
			c0.23-4.92,0.347-9.118,0.347-12.591c0-2.085-0.029-4.603-0.087-7.555c-0.059-2.952-0.29-5.992-0.695-9.118
			c-0.407-3.126-0.985-6.222-1.736-9.291c-0.755-3.066-1.883-5.817-3.387-8.249c-1.506-2.432-3.416-4.399-5.731-5.905
			c-2.317-1.503-5.153-2.258-8.51-2.258c-3.359,0-6.165,0.755-8.423,2.258c-2.258,1.506-4.111,3.473-5.558,5.905
			c-1.449,2.432-2.578,5.183-3.387,8.249c-0.811,3.07-1.389,6.166-1.736,9.291c-0.347,3.126-0.551,6.166-0.608,9.118
			c-0.059,2.952-0.087,5.47-0.087,7.555C122.089,66.669,122.204,70.867,122.437,75.786z"/>
		<path class="st5" d="M193.12,96.367V73.789l52.796-70.857h22.056v73.116h16.152v20.319h-16.152v28.134h-23.445V96.367H193.12z
			 M244.005,33.845l-31.434,42.203h31.955V33.845H244.005z"/>
	</g>
</g>
</svg>
