<?xml version="1.0" encoding="utf-8"?>
<!-- Generator: Adobe Illustrator 22.0.1, SVG Export Plug-In . SVG Version: 6.00 Build 0)  -->
<svg version="1.1" id="Layer_1" xmlns="http://www.w3.org/2000/svg" xmlns:xlink="http://www.w3.org/1999/xlink" x="0px" y="0px"
	 viewBox="0 0 189.875 248.017" style="enable-background:new 0 0 189.875 248.017;" xml:space="preserve">
<style type="text/css">
	.st0{fill:#3636FF;}
	.st1{fill:#FFFFFF;stroke:#3636FF;stroke-miterlimit:10;}
</style>
<g id="Isolation_Mode">
</g>
<g id="Layer_1_1_">
	<g>
		<g id="paired_1_">
			<path class="st0" d="M189.875,123.996v40.687c0,18.648-15.258,33.906-33.906,33.906H88.156
				c-18.648,0-33.906-15.258-33.906-33.906v-40.687c0-18.648,15.258-33.906,33.906-33.906h6.781v27.125h-6.781
				c-3.675,0-6.781,3.106-6.781,6.781v40.687c0,3.675,3.106,6.781,6.781,6.781h67.812c3.675,0,6.781-3.106,6.781-6.781v-40.687
				c0-3.675-3.106-6.781-6.781-6.781h-6.781V90.09h6.781C174.617,90.09,189.875,105.348,189.875,123.996z M101.719,49.403H33.906
				C15.258,49.403,0,64.66,0,83.309v40.688c0,18.648,15.258,33.906,33.906,33.906h6.781v-27.125h-6.781
				c-3.675,0-6.781-3.106-6.781-6.781V83.309c0-3.675,3.106-6.781,6.781-6.781H108.5v47.469v6.781H94.938v27.125h6.781
				c18.648,0,33.906-15.258,33.906-33.906V83.309C135.625,64.66,120.367,49.403,101.719,49.403z"/>
		</g>
		<path class="st1" d="M152.076,244.097L26.367,10.06c-1.696-3.157-0.511-7.091,2.646-8.786l0,0
			c3.157-1.696,7.091-0.511,8.786,2.646l125.71,234.037c1.696,3.157,0.511,7.091-2.646,8.786l0,0
			C157.706,248.439,153.772,247.254,152.076,244.097z"/>
	</g>
</g>
</svg>
