<?xml version="1.0" encoding="utf-8"?>
<!-- Generator: Adobe Illustrator 22.0.1, SVG Export Plug-In . SVG Version: 6.00 Build 0)  -->
<svg version="1.1" id="Layer_1" xmlns="http://www.w3.org/2000/svg" xmlns:xlink="http://www.w3.org/1999/xlink" x="0px" y="0px"
	 viewBox="0 0 217.031 195.839" style="enable-background:new 0 0 217.031 195.839;" xml:space="preserve">
<style type="text/css">
	.st0{fill:#3636FF;}
	.st1{fill:#FFFFFF;stroke:#3636FF;stroke-miterlimit:10;}
</style>
<g id="Isolation_Mode">
</g>
<g id="Layer_1_1_">
	<g>
		<circle class="st0" cx="97.919" cy="97.919" r="97.919"/>
		<path class="st1" d="M214.257,23.837l-10.539-10.539c-3.032-3.032-7.948-3.032-10.98,0L129.636,76.4l0.015,0.015l-26.241,26.241
			c-3.032,3.032-7.948,3.032-10.98,0L56.337,66.564c-3.032-3.032-7.948-3.032-10.98,0L34.818,77.103
			c-3.032,3.032-3.032,7.948,0,10.98L76.4,129.666l16.029,16.029c3.032,3.032,7.948,3.032,10.98,0l16.029-16.029l47.073-47.073
			l-0.015-0.015l47.76-47.76C217.289,31.785,217.289,26.869,214.257,23.837z"/>
	</g>
</g>
</svg>
