<?xml version="1.0" encoding="utf-8"?>
<!-- Generator: Adobe Illustrator 22.0.1, SVG Export Plug-In . SVG Version: 6.00 Build 0)  -->
<svg version="1.1" id="Layer_1" xmlns="http://www.w3.org/2000/svg" xmlns:xlink="http://www.w3.org/1999/xlink" x="0px" y="0px"
	 viewBox="0 0 113 127.072" style="enable-background:new 0 0 113 127.072;" xml:space="preserve">
<style type="text/css">
	.st0{opacity:0.8;fill:#FFFFFF;enable-background:new    ;}
	.st1{fill:#FFFFFF;}
</style>
<g id="Isolation_Mode">
</g>
<g id="Layer_1_1_">
	<g>
		<path class="st0" d="M23.412,37.139L7.463,9.514C6.556,7.943,5.448,6.565,4.207,5.363c3.436,3.441,5.561,8.192,5.561,13.439
			v70.793l16.046,27.793c0.499,0.864,1.071,1.656,1.677,2.41c-2.547-3.236-4.08-7.309-4.08-11.747V37.139H23.412z"/>
		<path class="st0" d="M3.442,4.665c0.25,0.225,0.509,0.441,0.748,0.68C3.946,5.109,3.696,4.885,3.442,4.665z"/>
		<path class="st0" d="M28.353,120.806c-0.147-0.162-0.3-0.318-0.441-0.485C28.055,120.488,28.204,120.646,28.353,120.806z"/>
		<path class="st1" d="M3.442,4.665C2.39,3.72,1.243,2.883,0,2.189v0.105C1.222,2.951,2.376,3.741,3.442,4.665z"/>
		<path class="st1" d="M4.189,5.344C4.195,5.35,4.201,5.357,4.207,5.363C4.201,5.357,4.195,5.35,4.189,5.344z"/>
		<path class="st1" d="M4.207,5.363C4.201,5.357,4.195,5.35,4.189,5.344C3.951,5.106,3.692,4.89,3.442,4.665
			C2.377,3.741,1.222,2.951,0,2.294v70.381v51.578c5.824-3.251,9.768-9.468,9.768-16.613V89.594V18.802
			C9.768,13.555,7.643,8.804,4.207,5.363z"/>
		<path class="st0" d="M110.448,98.365L59.15,9.514C53.897,0.416,42.264-2.701,33.166,2.552l0,0
			c-0.778,0.449-1.496,0.96-2.186,1.498c3.188-2.413,7.147-3.86,11.453-3.86l0,0c10.505,0,19.021,8.516,19.021,19.022v70.383
			L77.5,117.388c5.253,9.098,16.886,12.215,25.984,6.962l0,0C112.584,119.096,115.701,107.463,110.448,98.365z"/>
		<path class="st1" d="M27.912,120.321c-0.146-0.169-0.28-0.35-0.42-0.525C27.631,119.973,27.767,120.15,27.912,120.321z"/>
		<path class="st1" d="M42.434,0.189L42.434,0.189c-4.307,0-8.265,1.448-11.454,3.861c-4.59,3.473-7.568,8.962-7.568,15.161v17.928
			v70.911c0,4.438,1.532,8.51,4.08,11.746c0.14,0.175,0.274,0.356,0.42,0.525c0.141,0.167,0.294,0.323,0.441,0.485
			c3.48,3.839,8.491,6.266,14.081,6.266l0,0c10.505,0,19.021-8.516,19.021-19.022V89.594V19.211
			C61.456,8.706,52.939,0.189,42.434,0.189z"/>
	</g>
</g>
</svg>
