<?xml version="1.0" encoding="utf-8"?>
<!-- Generator: Adobe Illustrator 22.0.1, SVG Export Plug-In . SVG Version: 6.00 Build 0)  -->
<svg version="1.1" xmlns="http://www.w3.org/2000/svg" xmlns:xlink="http://www.w3.org/1999/xlink" x="0px" y="0px"
	 viewBox="0 0 602.103 1768.073" style="enable-background:new 0 0 602.103 1768.073;" xml:space="preserve">
<style type="text/css">
	.Drop_x0020_Shadow{fill:none;}
	.Outer_x0020_Glow_x0020_5_x0020_pt{fill:none;}
	.Blue_x0020_Neon{fill:none;stroke:#8AACDA;stroke-width:7;stroke-linecap:round;stroke-linejoin:round;}
	.Chrome_x0020_Highlight{fill:url(#SVGID_1_);stroke:#FFFFFF;stroke-width:0.3629;stroke-miterlimit:1;}
	.Jive_GS{fill:#FFDD00;}
	.Alyssa_GS{fill:#A6D0E4;}
	.st0{fill:#FFFFFF;}
	.st1{fill:#FFFFFF;stroke:#212168;stroke-miterlimit:10;}
	.st2{opacity:0.4;fill:#FFFFFF;stroke:#212168;stroke-miterlimit:10;}
	.st3{opacity:0.4;}
	.st4{fill:#3636FF;stroke:#3636FF;stroke-miterlimit:10;}
	.st5{opacity:0.1;fill:#FFFFFF;stroke:#212168;stroke-miterlimit:10;}
	.st6{fill:#FFFFFF;stroke:#3636FF;stroke-miterlimit:10;}
	.st7{fill:none;}
	.st8{fill:#212168;}
	.st9{fill:#F2F3F7;stroke:#212168;stroke-miterlimit:10;stroke-opacity:0.1;}
	.st10{opacity:0.3;}
	.st11{fill:#3636FF;}
	.st12{fill:url(#SVGID_2_);}
	.st13{fill:url(#SVGID_3_);}
	.st14{opacity:0.35;fill:none;stroke:#212168;stroke-miterlimit:10;}
	.st15{opacity:0.2;}
	.st16{fill:url(#SVGID_4_);}
	.st17{fill:url(#SVGID_5_);}
	.st18{fill:none;stroke:#3636FF;stroke-miterlimit:10;}
	.st19{fill:url(#SVGID_6_);}
	.st20{fill:url(#SVGID_7_);}
	.st21{opacity:0.4;fill:#212168;}
	.st22{fill:url(#SVGID_8_);}
	.st23{fill:url(#SVGID_9_);}
	.st24{fill:url(#SVGID_10_);}
	.st25{fill:url(#SVGID_11_);}
	.st26{fill:url(#SVGID_12_);}
	.st27{fill:url(#SVGID_13_);}
	.st28{fill:url(#SVGID_14_);}
	.st29{fill:url(#SVGID_15_);}
	.st30{fill:url(#SVGID_16_);}
	.st31{fill:url(#SVGID_17_);}
	.st32{fill:url(#SVGID_18_);}
	.st33{fill:url(#SVGID_19_);}
	.st34{fill:url(#SVGID_20_);}
	.st35{fill:url(#SVGID_21_);}
	.st36{fill:#F2F3F7;}
	.st37{fill:#606060;}
	.st38{fill:url(#SVGID_22_);}
	.st39{fill:url(#SVGID_23_);}
	.st40{fill:url(#SVGID_24_);}
	.st41{fill:url(#SVGID_25_);}
	.st42{opacity:0.8;fill:#FFFFFF;}
	.st43{opacity:0.8;fill:#3636FF;}
	.st44{fill:url(#SVGID_26_);}
	.st45{fill:url(#SVGID_27_);}
	.st46{fill:url(#SVGID_28_);}
	.st47{fill:url(#SVGID_29_);}
	.st48{fill:url(#SVGID_30_);}
	.st49{fill:url(#SVGID_31_);}
	.st50{fill:url(#SVGID_32_);}
	.st51{fill:url(#SVGID_33_);}
</style>
<linearGradient id="SVGID_1_" gradientUnits="userSpaceOnUse" x1="683.9215" y1="7300.0444" x2="683.9215" y2="7299.0444">
	<stop  offset="0" style="stop-color:#656565"/>
	<stop  offset="0.618" style="stop-color:#1B1B1B"/>
	<stop  offset="0.6292" style="stop-color:#545454"/>
	<stop  offset="0.9831" style="stop-color:#3E3E3E"/>
</linearGradient>
<g id="Isolation_Mode">
</g>
<g id="Layer_1">
	<g>
		<path class="st36" d="M0.18,734.488V533.782c0-9.941,8.059-18,18-18h75.719c9.941,0,18,8.059,18,18v200.706
			c0,9.941-8.059,18-18,18H18.18C8.239,752.488,0.18,744.429,0.18,734.488z"/>
		<path class="st11" d="M122.461,860.191V658.769c0-9.941,8.059-18,18-18h75.719c9.941,0,18,8.059,18,18v201.422
			c0,9.941-8.059,18-18,18h-75.719C130.52,878.191,122.461,870.132,122.461,860.191z"/>
		<path class="st36" d="M122.461,487.219v-79.14c0-9.941,8.059-18,18-18h75.719c9.941,0,18,8.059,18,18v79.14
			c0,9.941-8.059,18-18,18h-75.719C130.52,505.219,122.461,497.16,122.461,487.219z"/>
		<path class="st36" d="M122.461,612.922v-79.14c0-9.941,8.059-18,18-18h75.719c9.941,0,18,8.059,18,18v79.14
			c0,9.941-8.059,18-18,18h-75.719C130.52,630.922,122.461,622.864,122.461,612.922z"/>
		<path class="st36" d="M245.102,612.922v-79.14c0-9.941,8.059-18,18-18h75.719c9.941,0,18,8.059,18,18v79.14
			c0,9.941-8.059,18-18,18h-75.719C253.161,630.922,245.102,622.864,245.102,612.922z"/>
		<path class="st36" d="M0.18,487.219v-79.14c0-9.941,8.059-18,18-18h75.719c9.941,0,18,8.059,18,18v79.14c0,9.941-8.059,18-18,18
			H18.18C8.239,505.219,0.18,497.16,0.18,487.219z"/>
		<path class="st36" d="M122.461,114.248v-96.19c0-9.941,8.059-18,18-18h75.719c9.941,0,18,8.059,18,18v96.19
			c0,9.941-8.059,18-18,18h-75.719C130.52,132.248,122.461,124.189,122.461,114.248z"/>
		<path class="st36" d="M122.461,361.516V167.236c0-9.941,8.059-18,18-18h75.719c9.941,0,18,8.059,18,18v194.281
			c0,9.941-8.059,18-18,18h-75.719C130.52,379.516,122.461,371.457,122.461,361.516z"/>
		<path class="st36" d="M602.103,18.058V219.48c0,9.941-8.059,18-18,18h-75.719c-9.941,0-18-8.059-18-18V18.058
			c0-9.941,8.059-18,18-18h75.719C594.044,0.058,602.103,8.117,602.103,18.058z"/>
		<path class="st36" d="M602.103,391.03v79.14c0,9.941-8.059,18-18,18h-75.719c-9.941,0-18-8.059-18-18v-79.14
			c0-9.941,8.059-18,18-18h75.719C594.044,373.03,602.103,381.089,602.103,391.03z"/>
		<path class="st36" d="M602.103,265.327v79.14c0,9.941-8.059,18-18,18h-75.719c-9.941,0-18-8.059-18-18v-79.14
			c0-9.941,8.059-18,18-18h75.719C594.044,247.327,602.103,255.386,602.103,265.327z"/>
		<path class="st36" d="M602.103,758.364v159.737c0,9.941-8.059,18-18,18h-75.719c-9.941,0-18-8.059-18-18V758.364
			c0-9.941,8.059-18,18-18h75.719C594.044,740.364,602.103,748.423,602.103,758.364z"/>
		<path class="st36" d="M602.103,516.733v194.281c0,9.941-8.059,18-18,18h-75.719c-9.941,0-18-8.059-18-18V516.733
			c0-9.941,8.059-18,18-18h75.719C594.044,498.733,602.103,506.792,602.103,516.733z"/>
		<path class="st36" d="M0.18,286.898V92.618c0-9.941,8.059-18,18-18h75.719c9.941,0,18,8.059,18,18v194.281c0,9.941-8.059,18-18,18
			H18.18C8.239,304.898,0.18,296.84,0.18,286.898z"/>
		<path class="st36" d="M0.18,361.516v-28.055c0-9.941,8.059-18,18-18h75.719c9.941,0,18,8.059,18,18v28.055c0,9.941-8.059,18-18,18
			H18.18C8.239,379.516,0.18,371.457,0.18,361.516z"/>
		<path class="st36" d="M0.18,46.055V18c0-9.941,8.059-18,18-18h75.719c9.941,0,18,8.059,18,18v28.055c0,9.941-8.059,18-18,18H18.18
			C8.239,64.055,0.18,55.996,0.18,46.055z"/>
		<path class="st36" d="M479.462,144.043v200.706c0,9.941-8.059,18-18,18h-75.719c-9.941,0-18-8.059-18-18V144.043
			c0-9.941,8.059-18,18-18h75.719C471.403,126.043,479.462,134.102,479.462,144.043z"/>
		<path class="st36" d="M479.462,391.312v79.14c0,9.941-8.059,18-18,18h-75.719c-9.941,0-18-8.059-18-18v-79.14
			c0-9.941,8.059-18,18-18h75.719C471.403,373.312,479.462,381.371,479.462,391.312z"/>
		<path class="st36" d="M479.462,18.34v79.14c0,9.941-8.059,18-18,18h-75.719c-9.941,0-18-8.059-18-18V18.34c0-9.941,8.059-18,18-18
			h75.719C471.403,0.34,479.462,8.399,479.462,18.34z"/>
		<path class="st36" d="M479.462,591.633v194.281c0,9.941-8.059,18-18,18h-75.719c-9.941,0-18-8.059-18-18V591.633
			c0-9.941,8.059-18,18-18h75.719C471.403,573.633,479.462,581.692,479.462,591.633z"/>
		<path class="st36" d="M479.462,517.015v28.055c0,9.941-8.059,18-18,18h-75.719c-9.941,0-18-8.059-18-18v-28.055
			c0-9.941,8.059-18,18-18h75.719C471.403,499.015,479.462,507.074,479.462,517.015z"/>
		<path class="st36" d="M245.102,487.219V339.7c0-9.941,8.059-18,18-18h75.719c9.941,0,18,8.059,18,18v147.52
			c0,9.941-8.059,18-18,18h-75.719C253.161,505.219,245.102,497.16,245.102,487.219z"/>
		<path class="st36" d="M245.102,860.191v-79.14c0-9.941,8.059-18,18-18h75.719c9.941,0,18,8.059,18,18v79.14
			c0,9.941-8.059,18-18,18h-75.719C253.161,878.191,245.102,870.132,245.102,860.191z"/>
		<path class="st36" d="M245.102,734.488v-75.719c0-9.941,8.059-18,18-18h75.719c9.941,0,18,8.059,18,18v75.719
			c0,9.941-8.059,18-18,18h-75.719C253.161,752.488,245.102,744.429,245.102,734.488z"/>
		<path class="st36" d="M245.102,286.898V18c0-9.941,8.059-18,18-18l75.719,0c9.941,0,18,8.059,18,18v268.898
			c0,9.941-8.059,18-18,18h-75.719C253.161,304.898,245.102,296.84,245.102,286.898z"/>
		<path class="st36" d="M0,1624.029l0-200.706c0-9.941,8.059-18,18-18h75.719c9.941,0,18,8.059,18,18v200.706
			c0,9.941-8.059,18-18,18H18C8.059,1642.029,0,1633.97,0,1624.029z"/>
		<path class="st36" d="M122.281,1749.732v-201.422c0-9.941,8.059-18,18-18H216c9.941,0,18,8.059,18,18v201.422
			c0,9.941-8.059,18-18,18h-75.719C130.34,1767.732,122.281,1759.673,122.281,1749.732z"/>
		<path class="st36" d="M122.281,1376.761v-79.14c0-9.941,8.059-18,18-18H216c9.941,0,18,8.059,18,18v79.14c0,9.941-8.059,18-18,18
			h-75.719C130.34,1394.761,122.281,1386.702,122.281,1376.761z"/>
		<path class="st36" d="M122.281,1502.464v-79.14c0-9.941,8.059-18,18-18H216c9.941,0,18,8.059,18,18v79.14c0,9.941-8.059,18-18,18
			h-75.719C130.34,1520.464,122.281,1512.405,122.281,1502.464z"/>
		<path class="st36" d="M244.922,1502.464v-79.14c0-9.941,8.059-18,18-18h75.719c9.941,0,18,8.059,18,18v79.14
			c0,9.941-8.059,18-18,18h-75.719C252.981,1520.464,244.922,1512.405,244.922,1502.464z"/>
		<path class="st36" d="M0,1376.761l0-79.14c0-9.941,8.059-18,18-18h75.719c9.941,0,18,8.059,18,18v79.14c0,9.941-8.059,18-18,18H18
			C8.059,1394.761,0,1386.702,0,1376.761z"/>
		<path class="st36" d="M122.281,1003.789V907.6c0-9.941,8.059-18,18-18H216c9.941,0,18,8.059,18,18v96.19c0,9.941-8.059,18-18,18
			h-75.719C130.34,1021.789,122.281,1013.731,122.281,1003.789z"/>
		<path class="st36" d="M0,1749.732v-79.14c0-9.941,8.059-18,18-18h75.719c9.941,0,18,8.059,18,18v79.14c0,9.941-8.059,18-18,18H18
			C8.059,1767.732,0,1759.673,0,1749.732z"/>
		<path class="st36" d="M122.281,1251.058v-201.973c0-9.941,8.059-18,18-18H216c9.941,0,18,8.059,18,18v201.973
			c0,9.941-8.059,18-18,18h-75.719C130.34,1269.058,122.281,1260.999,122.281,1251.058z"/>
		<path class="st36" d="M601.923,965.452v143.569c0,9.941-8.059,18-18,18h-75.719c-9.941,0-18-8.059-18-18V965.452
			c0-9.941,8.059-18,18-18h75.719C593.864,947.452,601.923,955.511,601.923,965.452z"/>
		<path class="st36" d="M601.923,1280.571v79.14c0,9.941-8.059,18-18,18h-75.719c-9.941,0-18-8.059-18-18v-79.14
			c0-9.941,8.059-18,18-18h75.719C593.864,1262.571,601.923,1270.63,601.923,1280.571z"/>
		<path class="st36" d="M601.923,1154.868v79.14c0,9.941-8.059,18-18,18h-75.719c-9.941,0-18-8.059-18-18v-79.14
			c0-9.941,8.059-18,18-18h75.719C593.864,1136.868,601.923,1144.927,601.923,1154.868z"/>
		<path class="st36" d="M601.923,1653.542v96.19c0,9.941-8.059,18-18,18h-75.719c-9.941,0-18-8.059-18-18v-96.19
			c0-9.941,8.059-18,18-18h75.719C593.864,1635.542,601.923,1643.601,601.923,1653.542z"/>
		<path class="st36" d="M601.923,1406.274v194.281c0,9.941-8.059,18-18,18h-75.719c-9.941,0-18-8.059-18-18v-194.281
			c0-9.941,8.059-18,18-18h75.719C593.864,1388.274,601.923,1396.333,601.923,1406.274z"/>
		<path class="st36" d="M0,1176.44l0-194.28c0-9.941,8.059-18,18-18h75.719c9.941,0,18,8.059,18,18v194.28c0,9.941-8.059,18-18,18
			H18C8.059,1194.44,0,1186.381,0,1176.44z"/>
		<path class="st36" d="M0,1251.058l0-28.055c0-9.941,8.059-18,18-18h75.719c9.941,0,18,8.059,18,18v28.055c0,9.941-8.059,18-18,18
			H18C8.059,1269.058,0,1260.999,0,1251.058z"/>
		<path class="st36" d="M0,935.597l0-153.758c0-9.941,8.059-18,18-18h75.719c9.941,0,18,8.059,18,18v153.758c0,9.941-8.059,18-18,18
			H18C8.059,953.597,0,945.538,0,935.597z"/>
		<path class="st36" d="M479.282,1033.585v200.706c0,9.941-8.059,18-18,18h-75.719c-9.941,0-18-8.059-18-18v-200.706
			c0-9.941,8.059-18,18-18h75.719C471.223,1015.585,479.282,1023.644,479.282,1033.585z"/>
		<path class="st36" d="M479.282,1280.853v79.14c0,9.941-8.059,18-18,18h-75.719c-9.941,0-18-8.059-18-18v-79.14
			c0-9.941,8.059-18,18-18h75.719C471.223,1262.853,479.282,1270.912,479.282,1280.853z"/>
		<path class="st36" d="M479.282,833.264v153.758c0,9.941-8.059,18-18,18h-75.719c-9.941,0-18-8.059-18-18V833.264
			c0-9.941,8.059-18,18-18h75.719C471.223,815.264,479.282,823.323,479.282,833.264z"/>
		<path class="st36" d="M479.282,1481.174v194.281c0,9.941-8.059,18-18,18h-75.719c-9.941,0-18-8.059-18-18v-194.281
			c0-9.941,8.059-18,18-18h75.719C471.223,1463.174,479.282,1471.233,479.282,1481.174z"/>
		<path class="st36" d="M479.282,1406.556v28.055c0,9.941-8.059,18-18,18h-75.719c-9.941,0-18-8.059-18-18v-28.055
			c0-9.941,8.059-18,18-18h75.719C471.223,1388.556,479.282,1396.615,479.282,1406.556z"/>
		<path class="st36" d="M479.282,1722.017v28.055c0,9.941-8.059,18-18,18h-75.719c-9.941,0-18-8.059-18-18v-28.055
			c0-9.941,8.059-18,18-18h75.719C471.223,1704.017,479.282,1712.076,479.282,1722.017z"/>
		<path class="st11" d="M244.922,1376.761v-153.758c0-9.941,8.059-18,18-18h75.719c9.941,0,18,8.059,18,18v153.758
			c0,9.941-8.059,18-18,18h-75.719C252.981,1394.761,244.922,1386.702,244.922,1376.761z"/>
		<path class="st36" d="M244.922,1749.732v-79.14c0-9.941,8.059-18,18-18h75.719c9.941,0,18,8.059,18,18v79.14
			c0,9.941-8.059,18-18,18h-75.719C252.981,1767.732,244.922,1759.673,244.922,1749.732z"/>
		<path class="st36" d="M244.922,1624.029v-75.719c0-9.941,8.059-18,18-18h75.719c9.941,0,18,8.059,18,18v75.719
			c0,9.941-8.059,18-18,18h-75.719C252.981,1642.029,244.922,1633.97,244.922,1624.029z"/>
		<path class="st36" d="M244.922,1176.44V907.541c0-9.941,8.059-18,18-18h75.719c9.941,0,18,8.059,18,18v268.898
			c0,9.941-8.059,18-18,18h-75.719C252.981,1194.44,244.922,1186.381,244.922,1176.44z"/>
	</g>
</g>
</svg>
