<?xml version="1.0" encoding="utf-8"?>
<!-- Generator: Adobe Illustrator 22.0.1, SVG Export Plug-In . SVG Version: 6.00 Build 0)  -->
<svg version="1.1" xmlns="http://www.w3.org/2000/svg" xmlns:xlink="http://www.w3.org/1999/xlink" x="0px" y="0px"
	 viewBox="0 0 28.25 28.25" style="enable-background:new 0 0 28.25 28.25;" xml:space="preserve">
<style type="text/css">
	.Drop_x0020_Shadow{fill:none;}
	.Outer_x0020_Glow_x0020_5_x0020_pt{fill:none;}
	.Blue_x0020_Neon{fill:none;stroke:#8AACDA;stroke-width:7;stroke-linecap:round;stroke-linejoin:round;}
	.Chrome_x0020_Highlight{fill:url(#SVGID_1_);stroke:#FFFFFF;stroke-width:0.3629;stroke-miterlimit:1;}
	.Jive_GS{fill:#FFDD00;}
	.Alyssa_GS{fill:#A6D0E4;}
	.st0{fill:#FFFFFF;}
	.st1{fill:#FFFFFF;stroke:#212168;stroke-miterlimit:10;}
	.st2{opacity:0.4;fill:#FFFFFF;stroke:#212168;stroke-miterlimit:10;}
	.st3{opacity:0.4;}
	.st4{fill:#3636FF;stroke:#3636FF;stroke-miterlimit:10;}
	.st5{opacity:0.1;fill:#FFFFFF;stroke:#212168;stroke-miterlimit:10;}
	.st6{fill:#FFFFFF;stroke:#3636FF;stroke-miterlimit:10;}
	.st7{fill:none;}
	.st8{fill:#212168;}
	.st9{fill:#F2F3F7;stroke:#212168;stroke-miterlimit:10;stroke-opacity:0.1;}
	.st10{opacity:0.3;}
	.st11{fill:#3636FF;}
	.st12{fill:url(#SVGID_2_);}
	.st13{fill:url(#SVGID_3_);}
	.st14{opacity:0.35;fill:none;stroke:#212168;stroke-miterlimit:10;}
	.st15{opacity:0.2;}
	.st16{fill:url(#SVGID_4_);}
	.st17{fill:url(#SVGID_5_);}
	.st18{fill:none;stroke:#3636FF;stroke-miterlimit:10;}
	.st19{fill:url(#SVGID_6_);}
	.st20{fill:url(#SVGID_7_);}
	.st21{opacity:0.4;fill:#212168;}
	.st22{fill:url(#SVGID_8_);}
	.st23{fill:url(#SVGID_9_);}
	.st24{fill:url(#SVGID_10_);}
	.st25{fill:url(#SVGID_11_);}
	.st26{fill:url(#SVGID_12_);}
	.st27{fill:url(#SVGID_13_);}
	.st28{fill:url(#SVGID_14_);}
	.st29{fill:url(#SVGID_15_);}
	.st30{fill:url(#SVGID_16_);}
	.st31{fill:url(#SVGID_17_);}
	.st32{fill:url(#SVGID_18_);}
	.st33{fill:url(#SVGID_19_);}
	.st34{fill:url(#SVGID_20_);}
	.st35{fill:url(#SVGID_21_);}
	.st36{fill:#F2F3F7;}
	.st37{fill:#606060;}
	.st38{fill:url(#SVGID_22_);}
	.st39{fill:url(#SVGID_23_);}
	.st40{fill:url(#SVGID_24_);}
	.st41{fill:url(#SVGID_25_);}
	.st42{opacity:0.8;fill:#FFFFFF;}
	.st43{opacity:0.8;fill:#3636FF;}
	.st44{fill:url(#SVGID_26_);}
	.st45{fill:url(#SVGID_27_);}
	.st46{fill:url(#SVGID_28_);}
	.st47{fill:url(#SVGID_29_);}
	.st48{fill:url(#SVGID_30_);}
	.st49{fill:url(#SVGID_31_);}
	.st50{fill:url(#SVGID_32_);}
	.st51{fill:url(#SVGID_33_);}
</style>
<linearGradient id="SVGID_1_" gradientUnits="userSpaceOnUse" x1="6992.625" y1="2369.125" x2="6992.625" y2="2368.125">
	<stop  offset="0" style="stop-color:#656565"/>
	<stop  offset="0.618" style="stop-color:#1B1B1B"/>
	<stop  offset="0.6292" style="stop-color:#545454"/>
	<stop  offset="0.9831" style="stop-color:#3E3E3E"/>
</linearGradient>
<g id="Isolation_Mode">
</g>
<g id="Layer_1">
	<g>
		<path class="st8" d="M24.542,14.399L24.542,14.399c0,0.682-0.553,1.234-1.234,1.234H5.722c-0.682,0-1.234-0.553-1.234-1.234v0
			c0-0.682,0.553-1.234,1.234-1.234h17.585C23.989,13.165,24.542,13.717,24.542,14.399z"/>
		<path class="st8" d="M11.766,20.443L11.766,20.443c-0.482,0.482-1.264,0.482-1.746,0L4.85,15.272
			c-0.482-0.482-0.482-1.264,0-1.746l0,0c0.482-0.482,1.264-0.482,1.746,0l5.171,5.171C12.249,19.18,12.249,19.961,11.766,20.443z"
			/>
		<path class="st8" d="M4.85,15.272L4.85,15.272c-0.482-0.482-0.482-1.264,0-1.746l5.171-5.171c0.482-0.482,1.264-0.482,1.746,0l0,0
			c0.482,0.482,0.482,1.264,0,1.746l-5.171,5.171C6.113,15.754,5.332,15.754,4.85,15.272z"/>
	</g>
</g>
</svg>
