<?xml version="1.0" encoding="utf-8"?>
<!-- Generator: Adobe Illustrator 22.0.1, SVG Export Plug-In . SVG Version: 6.00 Build 0)  -->
<svg version="1.1" id="Layer_1" xmlns="http://www.w3.org/2000/svg" xmlns:xlink="http://www.w3.org/1999/xlink" x="0px" y="0px"
	 viewBox="0 0 11.421 11.422" style="enable-background:new 0 0 11.421 11.422;" xml:space="preserve">
<style type="text/css">
	.st0{fill:#3636FF;}
</style>
<g id="Isolation_Mode">
</g>
<g id="Layer_1_1_">
	<g id="remove_2_">
		<g>
			<path id="path_17_" class="st0" d="M11.335,9.251l-2.083,2.084c-0.114,0.115-0.303,0.115-0.417,0L5.71,8.213l-3.123,3.123
				c-0.114,0.114-0.303,0.114-0.417,0L0.086,9.252c-0.114-0.115-0.114-0.303,0-0.417l3.123-3.123L0.087,2.587
				c-0.114-0.114-0.114-0.303,0-0.417l2.084-2.083c0.115-0.114,0.303-0.114,0.417,0L5.71,3.209l3.123-3.123
				c0.114-0.114,0.303-0.114,0.417,0l2.084,2.084c0.114,0.114,0.114,0.303,0,0.417L8.213,5.709l3.123,3.123
				C11.449,8.948,11.449,9.135,11.335,9.251z"/>
		</g>
	</g>
</g>
</svg>
