<?xml version="1.0" encoding="utf-8"?>
<!-- Generator: Adobe Illustrator 22.0.1, SVG Export Plug-In . SVG Version: 6.00 Build 0)  -->
<svg version="1.1" id="Layer_1" xmlns="http://www.w3.org/2000/svg" xmlns:xlink="http://www.w3.org/1999/xlink" x="0px" y="0px"
	 viewBox="0 0 16.734 10.691" style="enable-background:new 0 0 16.734 10.691;" xml:space="preserve">
<style type="text/css">
	.st0{fill:#3636FF;}
</style>
<g id="Isolation_Mode">
</g>
<g id="Layer_1_1_">
	<g>
		<path class="st0" d="M0,5.345L0,5.345c0-0.569,0.461-1.03,1.03-1.03h14.674c0.569,0,1.03,0.461,1.03,1.03l0,0
			c0,0.569-0.461,1.03-1.03,1.03H1.03C0.461,6.375,0,5.914,0,5.345z"/>
		<path class="st0" d="M10.661,0.302L10.661,0.302c0.402-0.402,1.055-0.402,1.457,0l4.315,4.315c0.402,0.402,0.402,1.055,0,1.457
			l0,0c-0.402,0.402-1.054,0.402-1.457,0l-4.315-4.315C10.258,1.356,10.258,0.704,10.661,0.302z"/>
		<path class="st0" d="M16.433,4.617L16.433,4.617c0.402,0.402,0.402,1.055,0,1.457l-4.315,4.315c-0.402,0.402-1.055,0.402-1.457,0
			l0,0c-0.402-0.402-0.402-1.055,0-1.457l4.315-4.315C15.378,4.215,16.03,4.215,16.433,4.617z"/>
	</g>
</g>
</svg>
