<?xml version="1.0" encoding="utf-8"?>
<!-- Generator: Adobe Illustrator 22.0.1, SVG Export Plug-In . SVG Version: 6.00 Build 0)  -->
<svg version="1.1" xmlns="http://www.w3.org/2000/svg" xmlns:xlink="http://www.w3.org/1999/xlink" x="0px" y="0px"
	 viewBox="0 0 52.263 47.09" style="enable-background:new 0 0 52.263 47.09;" xml:space="preserve">
<style type="text/css">
	.Drop_x0020_Shadow{fill:none;}
	.Outer_x0020_Glow_x0020_5_x0020_pt{fill:none;}
	.Blue_x0020_Neon{fill:none;stroke:#8AACDA;stroke-width:7;stroke-linecap:round;stroke-linejoin:round;}
	.Chrome_x0020_Highlight{fill:url(#SVGID_1_);stroke:#FFFFFF;stroke-width:0.3629;stroke-miterlimit:1;}
	.Jive_GS{fill:#FFDD00;}
	.Alyssa_GS{fill:#A6D0E4;}
	.st0{fill:#FFFFFF;}
	.st1{fill:#FFFFFF;stroke:#212168;stroke-miterlimit:10;}
	.st2{opacity:0.4;fill:#FFFFFF;stroke:#212168;stroke-miterlimit:10;}
	.st3{opacity:0.4;}
	.st4{fill:#3636FF;stroke:#3636FF;stroke-miterlimit:10;}
	.st5{opacity:0.1;fill:#FFFFFF;stroke:#212168;stroke-miterlimit:10;}
	.st6{fill:#FFFFFF;stroke:#3636FF;stroke-miterlimit:10;}
	.st7{fill:none;}
	.st8{fill:#212168;}
	.st9{fill:#F2F3F7;stroke:#212168;stroke-miterlimit:10;stroke-opacity:0.1;}
	.st10{opacity:0.3;}
	.st11{fill:#3636FF;}
	.st12{fill:url(#SVGID_2_);}
	.st13{fill:url(#SVGID_3_);}
	.st14{opacity:0.35;fill:none;stroke:#212168;stroke-miterlimit:10;}
	.st15{opacity:0.2;}
	.st16{fill:url(#SVGID_4_);}
	.st17{fill:url(#SVGID_5_);}
	.st18{fill:none;stroke:#3636FF;stroke-miterlimit:10;}
	.st19{fill:url(#SVGID_6_);}
	.st20{fill:url(#SVGID_7_);}
	.st21{opacity:0.4;fill:#212168;}
	.st22{fill:url(#SVGID_8_);}
	.st23{fill:url(#SVGID_9_);}
	.st24{fill:url(#SVGID_10_);}
	.st25{fill:url(#SVGID_11_);}
	.st26{fill:url(#SVGID_12_);}
	.st27{fill:url(#SVGID_13_);}
	.st28{fill:url(#SVGID_14_);}
	.st29{fill:url(#SVGID_15_);}
	.st30{fill:url(#SVGID_16_);}
	.st31{fill:url(#SVGID_17_);}
	.st32{fill:url(#SVGID_18_);}
	.st33{fill:url(#SVGID_19_);}
	.st34{fill:url(#SVGID_20_);}
	.st35{fill:url(#SVGID_21_);}
	.st36{fill:#F2F3F7;}
	.st37{fill:#606060;}
	.st38{fill:url(#SVGID_22_);}
	.st39{fill:url(#SVGID_23_);}
	.st40{fill:url(#SVGID_24_);}
	.st41{fill:url(#SVGID_25_);}
	.st42{opacity:0.8;fill:#FFFFFF;}
	.st43{opacity:0.8;fill:#3636FF;}
	.st44{fill:url(#SVGID_26_);}
	.st45{fill:url(#SVGID_27_);}
	.st46{fill:url(#SVGID_28_);}
	.st47{fill:url(#SVGID_29_);}
	.st48{fill:url(#SVGID_30_);}
	.st49{fill:url(#SVGID_31_);}
	.st50{fill:url(#SVGID_32_);}
	.st51{fill:url(#SVGID_33_);}
</style>
<linearGradient id="SVGID_1_" gradientUnits="userSpaceOnUse" x1="7026.6709" y1="2028.2294" x2="7026.6709" y2="2027.2294">
	<stop  offset="0" style="stop-color:#656565"/>
	<stop  offset="0.618" style="stop-color:#1B1B1B"/>
	<stop  offset="0.6292" style="stop-color:#545454"/>
	<stop  offset="0.9831" style="stop-color:#3E3E3E"/>
</linearGradient>
<g id="Isolation_Mode">
</g>
<g id="Layer_1">
	<g>
		
			<linearGradient id="SVGID_2_" gradientUnits="userSpaceOnUse" x1="2834.8469" y1="10030.3564" x2="2834.8469" y2="9983.417" gradientTransform="matrix(0.866 -0.5 -0.5542 -0.9599 3107.5029 11046.8223)">
			<stop  offset="0.0013" style="stop-color:#70BEFF"/>
			<stop  offset="0.99" style="stop-color:#3636FF"/>
		</linearGradient>
		<path class="st12" d="M3.608,1.025L3.608,1.025c-3.366,1.943-4.519,6.247-2.576,9.613L20.01,43.507
			c1.943,3.366,6.247,4.519,9.613,2.576l0,0c3.366-1.943,4.519-6.247,2.576-9.613L13.221,3.601
			C11.278,0.235,6.974-0.918,3.608,1.025z"/>
		<path class="st11" d="M7.037,46.939L7.037,46.939C3.151,46.939,0,43.788,0,39.902L0,7.037C0,3.151,3.151,0,7.037,0h0
			c3.886,0,7.037,3.151,7.037,7.037v32.865C14.074,43.788,10.923,46.939,7.037,46.939z"/>
		
			<linearGradient id="SVGID_3_" gradientUnits="userSpaceOnUse" x1="2851.4065" y1="10021.7305" x2="2851.4065" y2="9974.792" gradientTransform="matrix(0.866 -0.5 -0.5542 -0.9599 3107.5029 11046.8223)">
			<stop  offset="0.0013" style="stop-color:#70BEFF"/>
			<stop  offset="0.99" style="stop-color:#3636FF"/>
		</linearGradient>
		<path class="st13" d="M22.73,1.025L22.73,1.025c-3.366,1.943-4.519,6.247-2.576,9.613l18.977,32.869
			c1.943,3.366,6.247,4.519,9.613,2.576l0,0c3.366-1.943,4.519-6.247,2.576-9.613L32.342,3.601
			C30.399,0.235,26.095-0.918,22.73,1.025z"/>
		<path class="st11" d="M26.158,47.09L26.158,47.09c-3.886,0-7.037-3.151-7.037-7.037V7.188c0-3.886,3.151-7.037,7.037-7.037h0
			c3.886,0,7.037,3.151,7.037,7.037v32.865C33.195,43.94,30.044,47.09,26.158,47.09z"/>
	</g>
</g>
</svg>
