<?xml version="1.0" encoding="utf-8"?>
<!-- Generator: Adobe Illustrator 22.0.1, SVG Export Plug-In . SVG Version: 6.00 Build 0)  -->
<svg version="1.1" xmlns="http://www.w3.org/2000/svg" xmlns:xlink="http://www.w3.org/1999/xlink" x="0px" y="0px"
	 viewBox="0 0 137.832 247.596" style="enable-background:new 0 0 137.832 247.596;" xml:space="preserve">
<style type="text/css">
	.Drop_x0020_Shadow{fill:none;}
	.Outer_x0020_Glow_x0020_5_x0020_pt{fill:none;}
	.Blue_x0020_Neon{fill:none;stroke:#8AACDA;stroke-width:7;stroke-linecap:round;stroke-linejoin:round;}
	.Chrome_x0020_Highlight{fill:url(#SVGID_1_);stroke:#FFFFFF;stroke-width:0.3629;stroke-miterlimit:1;}
	.Jive_GS{fill:#FFDD00;}
	.Alyssa_GS{fill:#A6D0E4;}
	.st0{fill:#FFFFFF;}
	.st1{fill:#FFFFFF;stroke:#212168;stroke-miterlimit:10;}
	.st2{opacity:0.4;fill:#FFFFFF;stroke:#212168;stroke-miterlimit:10;}
	.st3{opacity:0.4;}
	.st4{fill:#3636FF;stroke:#3636FF;stroke-miterlimit:10;}
	.st5{opacity:0.1;fill:#FFFFFF;stroke:#212168;stroke-miterlimit:10;}
	.st6{fill:#FFFFFF;stroke:#3636FF;stroke-miterlimit:10;}
	.st7{fill:none;}
	.st8{fill:#212168;}
	.st9{fill:#F2F3F7;stroke:#212168;stroke-miterlimit:10;stroke-opacity:0.1;}
	.st10{opacity:0.3;}
	.st11{fill:#3636FF;}
	.st12{fill:url(#SVGID_2_);}
	.st13{fill:url(#SVGID_3_);}
	.st14{opacity:0.35;fill:none;stroke:#212168;stroke-miterlimit:10;}
	.st15{opacity:0.2;}
	.st16{fill:url(#SVGID_4_);}
	.st17{fill:url(#SVGID_5_);}
	.st18{fill:none;stroke:#3636FF;stroke-miterlimit:10;}
	.st19{fill:url(#SVGID_6_);}
	.st20{fill:url(#SVGID_7_);}
	.st21{opacity:0.4;fill:#212168;}
	.st22{fill:url(#SVGID_8_);}
	.st23{fill:url(#SVGID_9_);}
	.st24{fill:url(#SVGID_10_);}
	.st25{fill:url(#SVGID_11_);}
	.st26{fill:url(#SVGID_12_);}
	.st27{fill:url(#SVGID_13_);}
	.st28{fill:url(#SVGID_14_);}
	.st29{fill:url(#SVGID_15_);}
	.st30{fill:url(#SVGID_16_);}
	.st31{fill:url(#SVGID_17_);}
	.st32{fill:url(#SVGID_18_);}
	.st33{fill:url(#SVGID_19_);}
	.st34{fill:url(#SVGID_20_);}
	.st35{fill:url(#SVGID_21_);}
	.st36{fill:#F2F3F7;}
	.st37{fill:#606060;}
	.st38{fill:url(#SVGID_22_);}
	.st39{fill:url(#SVGID_23_);}
	.st40{fill:url(#SVGID_24_);}
	.st41{fill:url(#SVGID_25_);}
	.st42{opacity:0.8;fill:#FFFFFF;}
	.st43{opacity:0.8;fill:#3636FF;}
	.st44{fill:url(#SVGID_26_);}
	.st45{fill:url(#SVGID_27_);}
	.st46{fill:url(#SVGID_28_);}
	.st47{fill:url(#SVGID_29_);}
	.st48{fill:url(#SVGID_30_);}
	.st49{fill:url(#SVGID_31_);}
	.st50{fill:url(#SVGID_32_);}
	.st51{fill:url(#SVGID_33_);}
</style>
<linearGradient id="SVGID_1_" gradientUnits="userSpaceOnUse" x1="-1854.5088" y1="692.8973" x2="-1854.5088" y2="691.8973">
	<stop  offset="0" style="stop-color:#656565"/>
	<stop  offset="0.618" style="stop-color:#1B1B1B"/>
	<stop  offset="0.6292" style="stop-color:#545454"/>
	<stop  offset="0.9831" style="stop-color:#3E3E3E"/>
</linearGradient>
<g id="Isolation_Mode">
</g>
<g id="Layer_1">
	<g>
		<g>
			<path class="st11" d="M116.592,78.009V46.748c0-7.453-6.042-13.494-13.494-13.494H35.402c-7.453,0-13.494,6.041-13.494,13.494
				v12.594c-0.497,0-0.9,0.403-0.9,0.9v5.398c0,0.497,0.403,0.9,0.9,0.9v6.747c-0.497,0-0.9,0.403-0.9,0.9v12.145
				c0,0.497,0.403,0.9,0.9,0.9v3.598c-0.497,0-0.9,0.403-0.9,0.9v12.145c0,0.497,0.403,0.9,0.9,0.9v108.852
				c0,7.453,6.041,13.494,13.494,13.494h67.695c7.452,0,13.494-6.041,13.494-13.494V100.05c0.497,0,0.9-0.403,0.9-0.9V78.909
				C117.491,78.412,117.088,78.009,116.592,78.009z M111.419,47.873V212.5c0.004,4.964-4.017,8.992-8.981,8.996
				c-0.005,0-0.01,0-0.015,0H36.077c-4.964,0.004-8.992-4.017-8.996-8.981c0-0.005,0-0.01,0-0.015V47.873
				c-0.004-4.964,4.017-8.992,8.981-8.996c0.005,0,0.01,0,0.015,0h8.546c0.613,0.001,1.113,0.492,1.125,1.104v0.695
				c-0.002,2.73,2.209,4.946,4.94,4.948c0.003,0,0.005,0,0.008,0h37.558c2.482,0.002,4.496-2.009,4.498-4.491
				c0-0.002,0-0.005,0-0.007v-1.124c0.001-0.62,0.503-1.123,1.123-1.125h8.547c4.964-0.004,8.992,4.017,8.996,8.981
				C111.419,47.863,111.419,47.868,111.419,47.873z"/>
		</g>
		<path class="st6" d="M128.441,244.606L1.064,7.464c-1.235-2.299-0.372-5.165,1.927-6.4l0,0c2.299-1.235,5.165-0.372,6.4,1.927
			l127.378,237.142c1.235,2.299,0.372,5.165-1.927,6.4v0C132.542,247.768,129.676,246.905,128.441,244.606z"/>
	</g>
</g>
</svg>
