<?xml version="1.0" encoding="utf-8"?>
<!-- Generator: Adobe Illustrator 22.0.1, SVG Export Plug-In . SVG Version: 6.00 Build 0)  -->
<svg version="1.1" id="Layer_1" xmlns="http://www.w3.org/2000/svg" xmlns:xlink="http://www.w3.org/1999/xlink" x="0px" y="0px"
	 viewBox="0 0 17.22 17.892" style="enable-background:new 0 0 17.22 17.892;" xml:space="preserve">
<style type="text/css">
	.st0{fill:#3636FF;}
</style>
<g id="Isolation_Mode">
	<g id="refresh_1_">
		<path id="path_1_" class="st0" d="M2.238,8.958H0c0-4.756,3.855-8.611,8.61-8.611c1.948,0,3.733,0.661,5.175,1.752l2.011-2.011
			c0.151-0.151,0.273-0.1,0.273,0.112v5.39c0,0.212-0.173,0.385-0.385,0.385h-5.39c-0.212,0-0.263-0.122-0.113-0.272l1.995-1.995
			c-1.019-0.699-2.24-1.124-3.566-1.124C5.096,2.584,2.238,5.443,2.238,8.958z M14.982,8.958c0,3.513-2.859,6.372-6.372,6.372
			c-1.332,0-2.559-0.427-3.582-1.131l1.987-1.987c0.149-0.149,0.098-0.272-0.112-0.272H1.534c-0.21,0.001-0.383,0.175-0.383,0.385
			v5.369c0,0.21,0.122,0.261,0.272,0.112l1.999-1.999c1.446,1.097,3.236,1.76,5.189,1.76c4.755,0,8.61-3.855,8.61-8.61h-2.239V8.958
			z"/>
	</g>
</g>
<g id="Layer_1_1_">
</g>
</svg>
